<?xml version="1.0" encoding="UTF-8" standalone="no"?>
<!DOCTYPE svg PUBLIC "-//W3C//DTD SVG 1.1//EN" "http://www.w3.org/Graphics/SVG/1.1/DTD/svg11.dtd">
<svg width="100%" height="100%" viewBox="0 0 1080 1080" version="1.1" xmlns="http://www.w3.org/2000/svg" xmlns:xlink="http://www.w3.org/1999/xlink" xml:space="preserve" xmlns:serif="http://www.serif.com/" style="fill-rule:evenodd;clip-rule:evenodd;stroke-linejoin:round;stroke-miterlimit:2;">
    <g transform="matrix(1.17477,0,0,1.17477,-101.432,-52.3954)">
        <g transform="matrix(0.974322,-0.225158,0.225158,0.974322,-141.469,60.0167)">
            <rect x="178.217" y="357.525" width="60.629" height="599.429"/>
        </g>
        <g transform="matrix(0.974322,0.225158,0.225158,-0.974322,531.165,1246.84)">
            <rect x="178.217" y="357.525" width="60.629" height="599.429"/>
        </g>
        <g transform="matrix(0.000376474,1,-1,0.000376474,1203.04,713.953)">
            <rect x="178.217" y="357.525" width="60.629" height="599.429"/>
        </g>
    </g>
    <g transform="matrix(1,0,0,1,-178.949,39.1911)">
        <g transform="matrix(647.332,0,0,647.332,329.578,850.68)">
            <path d="M0.439,-0.423C0.424,-0.428 0.407,-0.433 0.39,-0.437C0.372,-0.44 0.354,-0.442 0.337,-0.442C0.272,-0.442 0.223,-0.427 0.191,-0.396C0.159,-0.365 0.143,-0.317 0.143,-0.25C0.143,-0.221 0.148,-0.195 0.157,-0.172C0.166,-0.149 0.18,-0.129 0.197,-0.113C0.214,-0.097 0.235,-0.085 0.26,-0.076C0.284,-0.067 0.311,-0.063 0.34,-0.063C0.371,-0.063 0.402,-0.068 0.432,-0.079C0.461,-0.09 0.486,-0.104 0.506,-0.121L0.541,-0.063C0.532,-0.055 0.52,-0.047 0.506,-0.038C0.492,-0.029 0.476,-0.021 0.458,-0.014C0.439,-0.006 0.419,0 0.397,0.005C0.374,0.01 0.35,0.012 0.324,0.012C0.281,0.012 0.243,0.006 0.21,-0.007C0.177,-0.019 0.149,-0.037 0.127,-0.06C0.105,-0.083 0.088,-0.11 0.077,-0.143C0.066,-0.175 0.06,-0.211 0.06,-0.25C0.06,-0.292 0.066,-0.329 0.078,-0.362C0.089,-0.395 0.106,-0.422 0.128,-0.444C0.15,-0.466 0.177,-0.483 0.208,-0.495C0.239,-0.506 0.274,-0.512 0.313,-0.512C0.362,-0.512 0.403,-0.508 0.434,-0.499C0.464,-0.49 0.491,-0.481 0.512,-0.47L0.511,-0.467L0.511,-0.328L0.439,-0.328L0.439,-0.423Z" style="fill-rule:nonzero;"/>
        </g>
        <g transform="matrix(647.332,0,0,647.332,717.978,850.68)">
            <path d="M0.002,-0.7L0.162,-0.7L0.162,-0.443L0.167,-0.443C0.184,-0.465 0.207,-0.482 0.234,-0.494C0.261,-0.506 0.291,-0.512 0.323,-0.512C0.47,-0.512 0.543,-0.427 0.543,-0.258C0.543,-0.172 0.519,-0.106 0.472,-0.061C0.425,-0.015 0.357,0.008 0.27,0.008C0.229,0.008 0.191,0.004 0.158,-0.004C0.125,-0.012 0.1,-0.021 0.085,-0.032L0.085,-0.633L0.002,-0.633L0.002,-0.7ZM0.313,-0.445C0.273,-0.445 0.241,-0.434 0.216,-0.411C0.191,-0.388 0.173,-0.356 0.162,-0.315L0.162,-0.085C0.177,-0.077 0.196,-0.071 0.217,-0.066C0.238,-0.061 0.261,-0.059 0.284,-0.059C0.311,-0.059 0.335,-0.063 0.357,-0.071C0.378,-0.078 0.397,-0.09 0.412,-0.107C0.427,-0.123 0.439,-0.144 0.448,-0.169C0.456,-0.194 0.46,-0.224 0.46,-0.259C0.46,-0.284 0.457,-0.308 0.452,-0.331C0.447,-0.354 0.438,-0.374 0.427,-0.391C0.415,-0.408 0.4,-0.421 0.381,-0.431C0.362,-0.44 0.34,-0.445 0.313,-0.445Z" style="fill-rule:nonzero;"/>
        </g>
    </g>
</svg>
